<?xml version="1.0" standalone="no"?>
<!DOCTYPE svg PUBLIC "-//W3C//DTD SVG 20010904//EN"
 "http://www.w3.org/TR/2001/REC-SVG-20010904/DTD/svg10.dtd">
<svg version="1.0" xmlns="http://www.w3.org/2000/svg"
 width="644.000000pt" height="644.000000pt" viewBox="0 0 644.000000 644.000000"
 preserveAspectRatio="xMidYMid meet">
<metadata>
Created by potrace 1.14, written by Peter Selinger 2001-2017
</metadata>
<g transform="translate(0.000000,644.000000) scale(0.100000,-0.100000)"
fill="#000000" stroke="none">
<path d="M3090 6049 c-183 -23 -409 -89 -481 -140 -63 -44 -89 -76 -196 -239
-243 -369 -320 -455 -494 -549 -66 -36 -178 -81 -200 -81 -4 0 19 27 51 60
108 109 159 200 245 429 40 107 125 382 125 402 0 30 -201 -20 -394 -97 -264
-106 -371 -174 -444 -284 -53 -79 -82 -172 -132 -423 -49 -241 -80 -359 -119
-454 -40 -97 -132 -235 -147 -220 -4 3 1 109 10 234 9 125 16 271 16 323 0
156 -41 454 -69 498 -6 10 -26 5 -87 -21 -462 -198 -633 -388 -593 -657 25
-168 83 -255 320 -482 201 -192 265 -269 309 -375 43 -101 43 -151 1 -266 -26
-72 -34 -111 -39 -203 l-7 -115 -54 93 c-80 139 -167 259 -285 396 -125 147
-388 432 -397 432 -27 0 -32 -727 -6 -885 38 -238 77 -307 292 -515 389 -378
409 -399 449 -484 40 -85 41 -88 5 -181 -29 -78 -36 -211 -16 -322 8 -46 13
-83 12 -83 -2 0 -31 39 -66 88 -84 115 -243 304 -310 368 -96 91 -364 304
-382 304 -12 0 -7 -251 8 -430 19 -212 58 -484 86 -600 40 -166 144 -336 262
-433 81 -66 216 -146 392 -232 155 -76 439 -195 464 -195 6 0 11 6 11 14 0 35
-76 270 -158 491 l-90 240 103 110 c282 304 403 482 439 643 26 114 73 446 95
669 24 235 24 233 11 233 -13 0 -233 -160 -348 -252 -121 -98 -209 -185 -310
-308 l-87 -104 -6 59 c-8 72 6 231 27 311 20 81 73 189 121 249 22 28 131 147
243 265 216 229 309 338 340 400 34 66 68 202 100 397 17 103 40 228 51 276
12 49 19 90 17 93 -11 10 -234 -87 -360 -158 -172 -96 -327 -205 -427 -301
l-54 -52 6 120 c15 320 162 508 551 705 225 114 417 180 854 295 366 96 451
127 582 213 160 106 365 335 483 539 44 77 87 172 87 193 0 12 -316 11 -410
-1z"/>
<path d="M4115 5903 c-249 -279 -386 -529 -373 -675 8 -82 106 -225 443 -648
229 -288 250 -316 281 -385 54 -118 41 -354 -40 -710 -76 -333 -101 -435 -106
-435 -8 0 -101 348 -201 750 -112 447 -183 769 -183 837 l-1 62 -50 6 c-278
31 -602 42 -744 26 -223 -26 -349 -101 -401 -238 l-18 -48 -98 -7 c-164 -11
-315 -58 -366 -115 -68 -75 -63 -236 14 -466 17 -51 32 -94 34 -96 2 -2 17 8
34 22 17 15 47 31 68 38 42 13 299 24 337 15 l25 -6 0 -670 0 -670 -398 0
-399 0 -343 -912 c-189 -502 -343 -919 -344 -927 -2 -27 348 -173 569 -237 93
-27 112 -29 270 -29 199 0 174 -7 573 157 l243 99 52 -17 c29 -10 129 -50 224
-90 94 -40 225 -91 290 -114 118 -40 121 -40 265 -40 130 0 160 3 260 29 63
16 161 47 219 69 151 57 359 153 359 166 0 9 -300 816 -604 1626 l-81 215
-397 3 -398 2 0 628 0 629 -24 46 -23 47 183 0 c152 0 184 2 184 14 0 23 -57
191 -81 238 -37 73 -79 124 -121 148 l-40 22 46 47 c25 26 46 50 46 54 0 4
-67 7 -150 7 -84 0 -150 4 -150 9 0 17 61 61 103 73 49 14 281 17 408 5 l87
-9 17 -86 c53 -275 230 -995 365 -1487 119 -435 141 -505 165 -521 27 -18 273
-111 304 -116 21 -3 27 5 52 65 39 93 121 345 168 512 89 320 205 832 227
1003 4 28 9 52 12 52 19 0 73 -46 86 -75 43 -89 40 -173 -19 -510 -136 -790
-242 -1286 -374 -1755 -95 -333 -106 -378 -98 -386 8 -9 258 51 314 76 50 22
68 55 148 259 114 295 186 557 280 1026 115 575 162 1010 121 1110 -19 45 -88
118 -148 157 -26 17 -48 32 -48 34 0 1 24 49 53 106 29 57 71 158 93 226 38
118 40 122 64 117 37 -8 103 -57 117 -85 31 -66 44 -428 23 -670 -5 -63 -17
-218 -25 -345 -17 -256 -41 -434 -115 -866 -109 -631 -157 -866 -279 -1358
-73 -292 -82 -348 -57 -338 8 3 63 21 123 40 149 48 244 85 264 103 19 17 99
234 154 418 93 310 154 603 239 1141 79 505 87 566 106 845 15 236 15 816 -1
870 -18 60 -85 124 -183 175 -64 33 -76 43 -71 60 65 233 91 391 83 519 -10
147 -48 198 -173 231 -57 14 -275 22 -275 9 0 -3 9 -17 20 -31 46 -59 60 -171
39 -302 l-11 -68 -35 38 c-44 49 -108 69 -219 69 l-82 0 -7 63 c-28 269 -97
493 -158 516 -59 22 -351 20 -374 -2 -2 -3 4 -18 16 -34 48 -66 112 -328 110
-452 -1 -105 -5 -104 -115 31 -221 270 -325 420 -326 475 -1 16 11 54 26 83
34 68 156 220 176 220 29 0 270 -59 431 -105 385 -111 867 -295 966 -371 51
-39 119 -194 153 -347 32 -148 71 -455 95 -757 72 -889 13 -2134 -139 -2960
-13 -69 -22 -127 -20 -129 8 -8 92 36 177 92 49 33 130 100 182 151 109 106
113 116 144 336 55 383 84 997 78 1615 -6 579 -33 953 -98 1390 -84 555 -144
747 -265 839 -141 108 -569 285 -1014 421 -214 65 -809 215 -853 215 -4 0 -45
-44 -92 -97z m817 -1264 c63 -34 63 -202 -1 -406 l-18 -58 -52 105 c-54 105
-143 250 -188 304 -13 16 -21 31 -18 34 23 23 241 40 277 21z m-1910 -438 c66
-20 115 -74 132 -143 l6 -28 -294 0 -295 0 -11 41 c-23 85 16 125 135 139 99
11 277 6 327 -9z m-252 -2246 l0 -165 31 -19 c27 -17 205 -69 297 -87 l32 -6
0 221 0 221 165 0 165 0 -44 -122 c-196 -550 -459 -1274 -465 -1280 -4 -4
-105 268 -225 605 -121 336 -234 654 -252 705 l-34 92 165 0 165 0 0 -165z
m1194 -664 c97 -278 175 -506 173 -507 -1 -2 -91 -9 -199 -15 -155 -10 -233
-10 -374 0 -98 6 -179 13 -181 14 -1 2 80 258 180 570 l182 568 21 -63 c12
-35 101 -290 198 -567z m-1624 44 l177 -550 -56 -7 c-136 -16 -365 -20 -526
-8 -93 6 -172 13 -174 15 -3 4 30 100 260 760 143 407 130 374 137 355 3 -8
85 -262 182 -565z"/>
</g>
</svg>
