<svg width="99" height="99" viewBox="0 0 99 99" fill="none" xmlns="http://www.w3.org/2000/svg">
<path d="M70.6059 48.4244C58.9155 45.7217 41.3004 37.041 37.924 10.9561C37.8475 10.3649 36.81 10.3221 36.689 10.9058C30.775 39.4438 15.8287 46.0502 4.77128 48.2402C3.70624 48.4511 3.64562 49.8518 4.70218 50.1017C14.6947 52.4656 33.3404 58.5834 37.1746 87.6044C37.2355 88.0652 37.9653 88.0863 38.06 87.6312C45.1769 53.4105 61.5342 53.0661 70.762 50.1062C71.6729 49.814 71.538 48.6399 70.6059 48.4244Z" fill="#538200"/>
<path d="M95.6132 20.0743C89.989 18.39 82.6114 13.8692 81.0809 2.21985C81.0421 1.92444 80.5218 1.90339 80.4608 2.19504C77.9707 14.1111 72.2372 18.1741 67.2422 19.7626C66.2068 20.0919 66.1639 21.6061 67.1983 21.9386C71.9105 23.4534 78.2539 27.0189 80.3479 37.4173C80.4626 37.9867 81.4902 38.0301 81.633 37.4672C84.9439 24.4146 91.3023 22.8688 95.6976 21.6992C96.6231 21.4529 96.5306 20.3491 95.6132 20.0743Z" fill="#538200"/>
<path d="M96.1132 78.0743C90.489 76.39 83.1114 71.8692 81.5809 60.2199C81.5421 59.9244 81.0218 59.9034 80.9608 60.195C78.4707 72.1111 72.7372 76.1741 67.7422 77.7626C66.7068 78.0919 66.6639 79.6061 67.6983 79.9386C72.4105 81.4534 78.7539 85.0189 80.8479 95.4173C80.9626 95.9867 81.9902 96.0301 82.133 95.4672C85.4439 82.4146 91.8023 80.8688 96.1976 79.6992C97.1231 79.4529 97.0306 78.3491 96.1132 78.0743Z" fill="#538200"/>
</svg>
