<?xml version="1.0" encoding="UTF-8" standalone="no"?>
<!DOCTYPE svg PUBLIC "-//W3C//DTD SVG 1.1//EN"
 "http://www.w3.org/Graphics/SVG/1.1/DTD/svg11.dtd">
<!-- Generated by graphviz version 8.1.0 (20230707.0739)
 -->
<!-- Pages: 1 -->
<svg width="1605pt" height="575pt"
 viewBox="0.00 0.00 1604.75 575.00" xmlns="http://www.w3.org/2000/svg" xmlns:xlink="http://www.w3.org/1999/xlink">
<g id="graph0" class="graph" transform="scale(1 1) rotate(0) translate(4 571)">
<polygon fill="white" stroke="none" points="-4,4 -4,-571 1600.75,-571 1600.75,4 -4,4"/>
<!-- filers -->
<g id="node1" class="node">
<title>filers</title>
<ellipse fill="none" stroke="black" cx="534" cy="-549" rx="29.86" ry="18"/>
<text text-anchor="middle" x="534" y="-543.95" font-family="Times,serif" font-size="14.00">filers</text>
</g>
<!-- deductions -->
<g id="node2" class="node">
<title>deductions</title>
<ellipse fill="none" stroke="black" cx="359" cy="-195" rx="50.84" ry="18"/>
<text text-anchor="middle" x="359" y="-189.95" font-family="Times,serif" font-size="14.00">deductions</text>
</g>
<!-- filers&#45;&gt;deductions -->
<g id="edge1" class="edge">
<title>filers&#45;&gt;deductions</title>
<path fill="none" stroke="black" d="M504.15,-546.35C391.69,-539.73 0,-512.98 0,-461.5 0,-461.5 0,-461.5 0,-282.5 0,-222.04 194.9,-203.71 297.49,-198.26"/>
<polygon fill="black" stroke="black" points="297.51,-201.71 307.33,-197.71 297.16,-194.72 297.51,-201.71"/>
<text text-anchor="middle" x="144.75" y="-366.95" font-family="Times,serif" font-size="14.00">/dependentStatusBansFilerFromClaimingDependents</text>
</g>
<!-- filers&#45;&gt;deductions -->
<g id="edge2" class="edge">
<title>filers&#45;&gt;deductions</title>
<path fill="none" stroke="black" d="M503.76,-548.59C446.07,-547.98 326,-537.57 326,-461.5 326,-461.5 326,-461.5 326,-282.5 326,-261.34 334.73,-239.06 343.21,-222.41"/>
<polygon fill="black" stroke="black" points="346.71,-224.3 348.38,-213.84 340.55,-220.98 346.71,-224.3"/>
<text text-anchor="middle" x="464.38" y="-366.95" font-family="Times,serif" font-size="14.00">/secondaryFilerAdditionalStandardDeductionItems</text>
</g>
<!-- dependents -->
<g id="node3" class="node">
<title>dependents</title>
<ellipse fill="none" stroke="black" cx="968" cy="-460.5" rx="52.38" ry="18"/>
<text text-anchor="middle" x="968" y="-455.45" font-family="Times,serif" font-size="14.00">dependents</text>
</g>
<!-- filers&#45;&gt;dependents -->
<g id="edge3" class="edge">
<title>filers&#45;&gt;dependents</title>
<path fill="none" stroke="black" d="M563.8,-545.71C613.28,-541.54 715.34,-531.41 800,-513 842.1,-503.85 888.87,-489.12 922.35,-477.75"/>
<polygon fill="black" stroke="black" points="923.41,-480.75 931.73,-474.19 921.14,-474.13 923.41,-480.75"/>
<text text-anchor="middle" x="936.88" y="-499.7" font-family="Times,serif" font-size="14.00">/filersCouldntBeDependents</text>
</g>
<!-- filingStatus -->
<g id="node4" class="node">
<title>filingStatus</title>
<ellipse fill="none" stroke="black" cx="706" cy="-372" rx="53.4" ry="18"/>
<text text-anchor="middle" x="706" y="-366.95" font-family="Times,serif" font-size="14.00">filingStatus</text>
</g>
<!-- filers&#45;&gt;filingStatus -->
<g id="edge4" class="edge">
<title>filers&#45;&gt;filingStatus</title>
<path fill="none" stroke="black" d="M506.78,-541.28C454.45,-527.07 348.21,-491.26 386,-442.5 423.68,-393.89 459.97,-421.36 520,-408 562.91,-398.45 611.77,-389.32 648.65,-382.78"/>
<polygon fill="black" stroke="black" points="648.96,-386.11 658.2,-380.93 647.74,-379.21 648.96,-386.11"/>
<text text-anchor="middle" x="449" y="-455.45" font-family="Times,serif" font-size="14.00">/eligibleForJointReturn</text>
</g>
<!-- filers&#45;&gt;filingStatus -->
<g id="edge5" class="edge">
<title>filers&#45;&gt;filingStatus</title>
<path fill="none" stroke="black" d="M531.49,-530.76C529.17,-508.16 528.58,-468.35 548,-442.5 571.97,-410.58 613.78,-393.06 648.37,-383.6"/>
<polygon fill="black" stroke="black" points="649.03,-386.79 657.85,-380.91 647.29,-380 649.03,-386.79"/>
<text text-anchor="middle" x="609.5" y="-455.45" font-family="Times,serif" font-size="14.00">/isWidowedInTaxYear</text>
</g>
<!-- filers&#45;&gt;filingStatus -->
<g id="edge6" class="edge">
<title>filers&#45;&gt;filingStatus</title>
<path fill="none" stroke="black" d="M561.07,-541.05C591.9,-531.78 641.77,-512.45 671,-478.5 689.85,-456.61 698.62,-424.24 702.66,-401.14"/>
<polygon fill="black" stroke="black" points="706.26,-401.73 704.32,-391.32 699.34,-400.67 706.26,-401.73"/>
<text text-anchor="middle" x="719.5" y="-455.45" font-family="Times,serif" font-size="14.00">/isMarried</text>
</g>
<!-- filers&#45;&gt;filingStatus -->
<g id="edge7" class="edge">
<title>filers&#45;&gt;filingStatus</title>
<path fill="none" stroke="black" d="M563.99,-548.77C613,-548.18 709.09,-538.89 752,-478.5 761.27,-465.46 758.51,-457.12 752,-442.5 747.13,-431.58 739.26,-434 732,-424.5 726.35,-417.12 721.38,-408.32 717.34,-400.1"/>
<polygon fill="black" stroke="black" points="720.12,-398.76 712.74,-391.15 713.76,-401.7 720.12,-398.76"/>
<text text-anchor="middle" x="805.75" y="-455.45" font-family="Times,serif" font-size="14.00">/eligibleForSingle</text>
</g>
<!-- credits -->
<g id="node5" class="node">
<title>credits</title>
<ellipse fill="none" stroke="black" cx="1048" cy="-106.5" rx="35.49" ry="18"/>
<text text-anchor="middle" x="1048" y="-101.45" font-family="Times,serif" font-size="14.00">credits</text>
</g>
<!-- deductions&#45;&gt;credits -->
<g id="edge15" class="edge">
<title>deductions&#45;&gt;credits</title>
<path fill="none" stroke="black" d="M406.36,-188.05C533.11,-172.14 878.89,-128.73 1002.95,-113.16"/>
<polygon fill="black" stroke="black" points="1003.08,-116.54 1012.56,-111.82 1002.2,-109.6 1003.08,-116.54"/>
<text text-anchor="middle" x="775.12" y="-145.7" font-family="Times,serif" font-size="14.00">/agi</text>
</g>
<!-- dependents&#45;&gt;filingStatus -->
<g id="edge8" class="edge">
<title>dependents&#45;&gt;filingStatus</title>
<path fill="none" stroke="black" d="M925.36,-449.79C913.31,-447.23 900.17,-444.59 888,-442.5 827.8,-432.14 805.7,-453.13 751.75,-424.5 740.26,-418.4 730.28,-408.2 722.6,-398.47"/>
<polygon fill="black" stroke="black" points="724.96,-396.78 716.21,-390.81 719.33,-400.93 724.96,-396.78"/>
<text text-anchor="middle" x="848.12" y="-411.2" font-family="Times,serif" font-size="14.00">/dependents/*/hohQualifyingPerson</text>
</g>
<!-- dependents&#45;&gt;filingStatus -->
<g id="edge9" class="edge">
<title>dependents&#45;&gt;filingStatus</title>
<path fill="none" stroke="black" d="M965.19,-442.47C962.36,-430.93 956.79,-416.3 946,-408 919.2,-387.38 831.57,-378.85 769.98,-375.37"/>
<polygon fill="black" stroke="black" points="770.35,-371.83 760.18,-374.79 769.98,-378.82 770.35,-371.83"/>
<text text-anchor="middle" x="1053.62" y="-411.2" font-family="Times,serif" font-size="14.00">/dependents/*/qssQualifyingPerson</text>
</g>
<!-- dependents&#45;&gt;credits -->
<g id="edge12" class="edge">
<title>dependents&#45;&gt;credits</title>
<path fill="none" stroke="black" d="M1018.44,-455.36C1065.97,-450.53 1132.82,-441 1153,-424.5 1172.14,-408.86 1174,-397.72 1174,-373 1174,-373 1174,-373 1174,-194 1174,-171.9 1120.63,-141.92 1083.36,-123.69"/>
<polygon fill="black" stroke="black" points="1085.33,-120.27 1074.8,-119.1 1082.3,-126.58 1085.33,-120.27"/>
<text text-anchor="middle" x="1270.75" y="-278.45" font-family="Times,serif" font-size="14.00">/dependents/*/eitcQualifyingPerson</text>
</g>
<!-- dependents&#45;&gt;credits -->
<g id="edge13" class="edge">
<title>dependents&#45;&gt;credits</title>
<path fill="none" stroke="black" d="M1020.59,-459.97C1136.55,-459.6 1404,-450.36 1404,-373 1404,-373 1404,-373 1404,-194 1404,-123.18 1160.85,-144.79 1093,-124.5 1090.41,-123.73 1087.75,-122.87 1085.09,-121.98"/>
<polygon fill="black" stroke="black" points="1086.51,-118.41 1075.92,-118.38 1084.17,-125.01 1086.51,-118.41"/>
<text text-anchor="middle" x="1500.38" y="-278.45" font-family="Times,serif" font-size="14.00">/dependents/*/isClaimedDependent</text>
</g>
<!-- filingStatus&#45;&gt;credits -->
<g id="edge10" class="edge">
<title>filingStatus&#45;&gt;credits</title>
<path fill="none" stroke="black" d="M726.62,-355.11C785.38,-309.84 953.7,-180.16 1020.34,-128.81"/>
<polygon fill="black" stroke="black" points="1022.27,-130.97 1028.05,-122.1 1017.99,-125.43 1022.27,-130.97"/>
<text text-anchor="middle" x="917" y="-234.2" font-family="Times,serif" font-size="14.00">/filingStatus</text>
</g>
<!-- income -->
<g id="node6" class="node">
<title>income</title>
<ellipse fill="none" stroke="black" cx="496" cy="-283.5" rx="38.56" ry="18"/>
<text text-anchor="middle" x="496" y="-278.45" font-family="Times,serif" font-size="14.00">income</text>
</g>
<!-- filingStatus&#45;&gt;income -->
<g id="edge11" class="edge">
<title>filingStatus&#45;&gt;income</title>
<path fill="none" stroke="black" d="M673.19,-357.48C635.6,-342 574.08,-316.66 534.32,-300.28"/>
<polygon fill="black" stroke="black" points="535.79,-296.69 525.21,-296.12 533.13,-303.17 535.79,-296.69"/>
<text text-anchor="middle" x="670.75" y="-322.7" font-family="Times,serif" font-size="14.00">/isFilingStatusMFJ</text>
</g>
<!-- finalAmount -->
<g id="node7" class="node">
<title>finalAmount</title>
<ellipse fill="none" stroke="black" cx="1117" cy="-18" rx="58.52" ry="18"/>
<text text-anchor="middle" x="1117" y="-12.95" font-family="Times,serif" font-size="14.00">finalAmount</text>
</g>
<!-- credits&#45;&gt;finalAmount -->
<g id="edge16" class="edge">
<title>credits&#45;&gt;finalAmount</title>
<path fill="none" stroke="black" d="M1060.66,-89.63C1070.8,-76.91 1085.23,-58.82 1096.95,-44.14"/>
<polygon fill="black" stroke="black" points="1099.98,-46.95 1103.48,-36.95 1094.51,-42.58 1099.98,-46.95"/>
<text text-anchor="middle" x="1112.38" y="-57.2" font-family="Times,serif" font-size="14.00">/totalTax</text>
</g>
<!-- income&#45;&gt;deductions -->
<g id="edge14" class="edge">
<title>income&#45;&gt;deductions</title>
<path fill="none" stroke="black" d="M473.68,-268.41C451.63,-254.49 417.63,-233.02 392.36,-217.07"/>
<polygon fill="black" stroke="black" points="394.48,-213.63 384.15,-211.25 390.74,-219.55 394.48,-213.63"/>
<text text-anchor="middle" x="481" y="-234.2" font-family="Times,serif" font-size="14.00">/taxableIncome</text>
</g>
<!-- estimatedPayments -->
<g id="node8" class="node">
<title>estimatedPayments</title>
<ellipse fill="none" stroke="black" cx="1185" cy="-106.5" rx="83.08" ry="18"/>
<text text-anchor="middle" x="1185" y="-101.45" font-family="Times,serif" font-size="14.00">estimatedPayments</text>
</g>
<!-- estimatedPayments&#45;&gt;finalAmount -->
<g id="edge17" class="edge">
<title>estimatedPayments&#45;&gt;finalAmount</title>
<path fill="none" stroke="black" d="M1171.57,-88.41C1161.63,-75.77 1147.94,-58.36 1136.76,-44.13"/>
<polygon fill="black" stroke="black" points="1139.11,-42.46 1130.18,-36.76 1133.6,-46.78 1139.11,-42.46"/>
<text text-anchor="middle" x="1197.5" y="-57.2" font-family="Times,serif" font-size="14.00">/totalPayments</text>
</g>
</g>
</svg>
