<svg width="50" height="44" viewBox="0 0 50 44" fill="none" xmlns="http://www.w3.org/2000/svg">
<path d="M6.83134 2H43.1608C45.7212 2 47.8152 4.15 47.8152 6.79V27.14C47.8152 29.77 45.7212 31.93 43.1608 31.93H38.1133C37.9853 31.93 37.8756 32.06 37.8756 32.22L37.9121 42.01C37.9121 42.01 28.32 42.01 28.1462 32.2C28.1462 32.06 28.0456 31.94 27.9176 31.94H6.8222C4.21613 31.94 2.0947 29.79 2.0947 27.15V6.8C2.0947 4.17 4.22527 2.01 6.8222 2.01L6.83134 2Z" fill="white" stroke="#1B1B1B" stroke-width="2.4"/>
<path d="M10.334 13.4502H32.2798H10.334Z" fill="white"/>
<path d="M10.334 13.4502H32.2798" stroke="#1B1B1B" stroke-width="2.4" stroke-linecap="square"/>
<path d="M10.3336 21.4502H39.5947H10.3336Z" fill="white"/>
<path d="M10.3336 21.4502H39.5947" stroke="#1B1B1B" stroke-width="2.4" stroke-linecap="square"/>
</svg>
