<?xml version="1.0" encoding="UTF-8"?>
<svg id="DF_Logo" data-name="DF Logo" xmlns="http://www.w3.org/2000/svg" xmlns:xlink="http://www.w3.org/1999/xlink" viewBox="0 0 308.54 40.74">
  <defs>
    <style>
      .cls-1 {
        clip-rule: evenodd;
      }

      .cls-1, .cls-2, .cls-3 {
        fill: #1b1b1b;
      }

      .cls-1, .cls-3 {
        stroke-width: 0px;
      }

      .cls-4 {
        clip-path: url(#clippath);
      }

      .cls-2 {
        fill-rule: evenodd;
      }

      .cls-5 {
        fill: none;
        stroke: #1b1b1b;
        stroke-linecap: square;
        stroke-miterlimit: 10;
        stroke-width: 1.12px;
      }
    </style>
    <clipPath id="clippath">
      <path class="cls-1" d="m73.37,19.65c-.15,0-.33,0-.55-.01s-.49-.01-.79-.01V5.8c1.59-.31,2.85-.46,3.78-.46,2.1,0,3.79.65,5.06,1.95,1.28,1.3,1.91,2.99,1.91,5.06s-.79,3.87-2.37,5.24c-1.58,1.37-3.92,2.05-7.03,2.05Zm41.06,4.78c-.6-1.21-1.46-2.26-2.57-3.15-1.11-.89-3.2-2.17-6.24-3.84-3.74-2.04-6.1-3.68-7.1-4.9-.69-.83-1.04-1.76-1.04-2.77,0-1.33.54-2.5,1.63-3.54,1.09-1.04,2.47-1.55,4.13-1.55,1.48,0,2.91.38,4.28,1.15,1.38.77,2.44,1.81,3.18,3.12.74,1.31,1.27,3.07,1.55,5.27h.89V2.72h-.89c-.16.77-.38,1.28-.64,1.53-.27.25-.61.38-1.02.38-.37,0-1-.2-1.9-.61-1.94-.86-3.78-1.3-5.51-1.3-2.78,0-5.06.86-6.86,2.58-1.8,1.73-2.69,3.78-2.69,6.16,0,1.38.3,2.63.91,3.78.61,1.14,1.51,2.19,2.68,3.14,1.18.95,3.17,2.22,5.96,3.81,2.79,1.59,4.5,2.63,5.12,3.13.93.72,1.62,1.49,2.06,2.33.44.83.66,1.66.66,2.47,0,1.47-.58,2.75-1.74,3.82-1.16,1.08-2.75,1.62-4.75,1.62-1.73,0-3.32-.39-4.78-1.18-1.45-.78-2.53-1.77-3.23-2.96-.7-1.18-1.27-2.97-1.68-5.35h-.89v9.67c-1.34-.32-2.17-.7-3.11-1.31-1.11-.72-2.43-2.17-3.97-4.36l-6.73-9.54c2.74-.62,4.76-1.68,6.07-3.18,1.31-1.51,1.96-3.28,1.96-5.32,0-1.91-.58-3.56-1.72-4.94-1.14-1.38-2.54-2.33-4.18-2.84-1.64-.51-4.2-.77-7.66-.77h-11.88v.91h1.23c1.23,0,2.17.36,2.79,1.08.45.51.67,1.81.67,3.9v21.47c0,1.89-.17,3.1-.5,3.6-.59.91-1.58,1.38-2.96,1.38h-1.23v.91h13.98v-.91h-1.28c-1.22,0-2.13-.36-2.74-1.08-.45-.51-.67-1.8-.67-3.9v-9.67c.25.02.5.03.74.04.24,0,.47.01.67.01.51,0,1.18-.01,2-.05l11.04,15.54h8.54c.1-.35.21-.61.36-.76.23-.25.55-.37.95-.37s1.4.26,2.97.77c1.56.51,2.59.81,3.09.89.84.15,1.73.22,2.67.22,3.01,0,5.48-.91,7.4-2.73,1.92-1.82,2.88-3.99,2.88-6.51,0-1.32-.3-2.58-.9-3.79ZM45.88,4.38h1.16c.77,0,1.51.2,2.22.59.5.3.82.65.99,1.05.21.54.31,1.65.31,3.33v21.47c0,1.99-.19,3.25-.58,3.78-.61.8-1.59,1.2-2.94,1.2h-1.16v.91h13.98v-.91h-1.18c-.77,0-1.5-.2-2.19-.59-.51-.3-.85-.64-1.01-1.05-.21-.54-.31-1.65-.31-3.33V9.36c0-1.99.2-3.25.6-3.78.61-.8,1.58-1.2,2.91-1.2h1.18v-.91h-13.97v.91Zm-11.75,9.42c-.55-1.3-.95-2.04-1.88-3.25.54-.18.94-.18,1.48-.26,1.51-.25.8,2.45.41,3.51ZM23.79.56c.31,0,.55,0,.7,0-.48,1.54-2.52,4.5-4.66,5.56-1.16.57-3.46,1.04-4.89,1.47-1.66.48-4.22,1.35-6.16,2.84-1.36,1.05-1.99,2.54-1.83,4.58,1.19-1.31,3.71-2.95,5.77-3.61-.56,1.89-.47,3.42-1.11,5.16-.41,1.1-3.47,3.75-4.33,5.13-.62,1-.94,2.65-.71,4.1,0,0,.39-.52.81-1.03l.13-.16c.13-.16.27-.32.39-.45,1.3-1.39,3.8-3.1,3.79-3.1,0,.93-.39,4.98-.87,6.7-.38,1.41-2.92,4.08-3.61,4.82,0,0,.34.92.7,1.92l.09.25s.03.08.04.13l.09.25c.09.25.17.49.25.71.4,1.15.55,1.97.56,1.96-.87-.32-4.98-2.04-6.25-3.35-1.44-1.49-1.53-3.17-1.81-4.98-.04-.26-.13-1.13-.21-2.07l-.03-.38c-.08-1.02-.13-2.03-.07-2.37l.03.02c.27.2,2.19,1.57,3.2,2.76,1.19,1.39,2.05,2.7,2.06,2.7-.08-.58-.2-1.07-.23-1.47-.13-1.09.57-1.89.46-2.13,0,0-.08-.24-.39-.9-.31-.63-1.2-1.47-2.11-2.32l-.37-.34c-.79-.74-1.53-1.47-1.87-2.06-.35-.56-1.11-1.8-.64-8.17,0,0,2.35,2.49,3.56,4.08.76,1.02,1.57,2.62,1.58,2.63-.24-2.21.62-3.36.56-3.37,0-.06-.16-.88-.48-1.45-1.11-1.96-3.74-3.05-4.1-5.39-.31-1.81.47-3.27,4.56-4.9.8,2.86.33,5.31.25,7.58,1.97-1.7,1.73-6.03,2.69-7.58.33-.58.78-1.19,2.27-1.81,1.39-.57,2.22-.97,3.56-1.14-.02.16-.76,2.8-1.34,4.08-.71,1.56-1.68,2.17-1.73,2.29,1.57-.41,2.76-1.14,3.79-2.7.35-.51.74-1.07,1.19-1.78.41-.68.85-1.52,1.73-1.88,1.81-.73,3.64-.83,4.76-.84h.21Zm-1.59,14.14h-4.1c-.31-.97-.02-1.22.87-1.31,1.66-.15,3.09-.15,3.23,1.31Zm-.31,16.32v-3.1h2.37l-3.56,10.06-3.54-10.06h2.37v2.21s0,.2.08.23c.31.17.39.17.38.16l1.91.49Zm7.02,6.29s-1.68.17-2.75.17c-.99,0-2.53-.17-2.54-.17l2.54-8.08,2.75,8.08Zm-13.66.18c-1.07,0-2.75-.17-2.75-.17l2.75-8.08,2.54,8.08s-1.55.16-2.54.17ZM42.5,5.8c-.51-.86-5.68-3.27-13.17-4.82-3.08,3.35-3.09,4.68-3.15,5.23-.08.57,1.02,1.97,2.13,3.43,2.05,2.69,2.6,3.18,2.91,4,.6,1.54-.39,4.98-1.1,8.17,0-.01-1.84-6.74-2.69-11.12-.08-.41.08-.65.08-.65-4.63-.46-7.73-.66-8.29,1.78-2.12,0-3.1.62-3.31.98-.56.91.11,2.81.46,3.76.3-.75,2.2-.62,2.81-.59.27.01.27.18.35.33l.02,9.16h-5.44l-4.73,12.82c2.19,1.07,4.49,1.88,5.9,1.88s4.94-1.88,5.44-1.88c.48,0,4.03,1.88,5.46,1.88s3.7-.73,5.9-1.88l-4.73-12.82h-5.44v-8.66c-.1-.57-.35-.77-.56-.8h2.77c-.4-1.64-.96-2.78-1.73-2.86.22-.33.39-.46.71-.75h-2.14c.23-1.14,3-.73,4.17-.65,1.22,6.15,3.54,14.4,3.63,14.55.1.14,2.05.88,2.29.9,1.13-2.46,2.83-9.69,2.92-11.44,1.42.49.85,2.41.56,4.33-1.6,9.94-2.87,12.93-3.25,14.78,1.42-.31,2.3-.57,2.44-.73.22-.23.87-1.91,1.44-3.76.82-2.7,2.2-9.55,2.12-12.25,0-.65-.54-1.3-1.5-1.8,0,0,.48-.83.71-1.37.29-.7.64-1.89.64-1.88.56.16,1.04.41,1.11.98.3,2.61.15,2.85-.17,7.66-.09,1.54-.63,4.58-1.17,7.76-1.02,5.84-1.98,8.34-1.98,9.23,1.5-.49,2.66-.86,2.77-1.05.15-.28,1.25-3.1,2.04-7.35.34-1.81.58-3.62.87-5.47.41-2.46.48-5,.48-7.11,0-3.1.36-3.12-1.89-4.33.86-2.52.68-4.17.46-4.65-.39-.9-.86-.9-2.85-.75.72.66.5,2.05.33,2.86-.39-.32-.24-.89-2.37-.8-.32-3.52-.96-3.91-1.04-4.02-.3-.4-2.06-.21-2.6,0,.39.25,1.19,3.03.79,4.1-.24-.33-3.23-3.76-3-4.41.15-.39.32-.82,1.34-2.04,3.55.65,9.63,2.93,9.95,3.58.38.79.73,1.7.94,3.1.33,2.02.93,6.86.64,14.21-.31,7.6-1.29,11.91-1.27,11.68,1.12-.35,2.95-2.07,3.1-2.45.47-1.25.7-5.71.87-9.8.16-4.08-.26-9.24-.48-11.19-.54-4.75-.87-5.97-1.5-7.03Z"/>
    </clipPath>
  </defs>
  <g id="IRS_logo" data-name="IRS logo">
    <path class="cls-2" d="m73.37,19.65c-.15,0-.33,0-.55-.01s-.49-.01-.79-.01V5.8c1.59-.31,2.85-.46,3.78-.46,2.1,0,3.79.65,5.06,1.95,1.28,1.3,1.91,2.99,1.91,5.06s-.79,3.87-2.37,5.24c-1.58,1.37-3.92,2.05-7.03,2.05Zm41.06,4.78c-.6-1.21-1.46-2.26-2.57-3.15-1.11-.89-3.2-2.17-6.24-3.84-3.74-2.04-6.1-3.68-7.1-4.9-.69-.83-1.04-1.76-1.04-2.77,0-1.33.54-2.5,1.63-3.54,1.09-1.04,2.47-1.55,4.13-1.55,1.48,0,2.91.38,4.28,1.15,1.38.77,2.44,1.81,3.18,3.12.74,1.31,1.27,3.07,1.55,5.27h.89V2.72h-.89c-.16.77-.38,1.28-.64,1.53-.27.25-.61.38-1.02.38-.37,0-1-.2-1.9-.61-1.94-.86-3.78-1.3-5.51-1.3-2.78,0-5.06.86-6.86,2.58-1.8,1.73-2.69,3.78-2.69,6.16,0,1.38.3,2.63.91,3.78.61,1.14,1.51,2.19,2.68,3.14,1.18.95,3.17,2.22,5.96,3.81,2.79,1.59,4.5,2.63,5.12,3.13.93.72,1.62,1.49,2.06,2.33.44.83.66,1.66.66,2.47,0,1.47-.58,2.75-1.74,3.82-1.16,1.08-2.75,1.62-4.75,1.62-1.73,0-3.32-.39-4.78-1.18-1.45-.78-2.53-1.77-3.23-2.96-.7-1.18-1.27-2.97-1.68-5.35h-.89v9.67c-1.34-.32-2.17-.7-3.11-1.31-1.11-.72-2.43-2.17-3.97-4.36l-6.73-9.54c2.74-.62,4.76-1.68,6.07-3.18,1.31-1.51,1.96-3.28,1.96-5.32,0-1.91-.58-3.56-1.72-4.94-1.14-1.38-2.54-2.33-4.18-2.84-1.64-.51-4.2-.77-7.66-.77h-11.88v.91h1.23c1.23,0,2.17.36,2.79,1.08.45.51.67,1.81.67,3.9v21.47c0,1.89-.17,3.1-.5,3.6-.59.91-1.58,1.38-2.96,1.38h-1.23v.91h13.98v-.91h-1.28c-1.22,0-2.13-.36-2.74-1.08-.45-.51-.67-1.8-.67-3.9v-9.67c.25.02.5.03.74.04.24,0,.47.01.67.01.51,0,1.18-.01,2-.05l11.04,15.54h8.54c.1-.35.21-.61.36-.76.23-.25.55-.37.95-.37s1.4.26,2.97.77c1.56.51,2.59.81,3.09.89.84.15,1.73.22,2.67.22,3.01,0,5.48-.91,7.4-2.73,1.92-1.82,2.88-3.99,2.88-6.51,0-1.32-.3-2.58-.9-3.79ZM45.88,4.38h1.16c.77,0,1.51.2,2.22.59.5.3.82.65.99,1.05.21.54.31,1.65.31,3.33v21.47c0,1.99-.19,3.25-.58,3.78-.61.8-1.59,1.2-2.94,1.2h-1.16v.91h13.98v-.91h-1.18c-.77,0-1.5-.2-2.19-.59-.51-.3-.85-.64-1.01-1.05-.21-.54-.31-1.65-.31-3.33V9.36c0-1.99.2-3.25.6-3.78.61-.8,1.58-1.2,2.91-1.2h1.18v-.91h-13.97v.91Zm-11.75,9.42c-.55-1.3-.95-2.04-1.88-3.25.54-.18.94-.18,1.48-.26,1.51-.25.8,2.45.41,3.51ZM23.79.56c.31,0,.55,0,.7,0-.48,1.54-2.52,4.5-4.66,5.56-1.16.57-3.46,1.04-4.89,1.47-1.66.48-4.22,1.35-6.16,2.84-1.36,1.05-1.99,2.54-1.83,4.58,1.19-1.31,3.71-2.95,5.77-3.61-.56,1.89-.47,3.42-1.11,5.16-.41,1.1-3.47,3.75-4.33,5.13-.62,1-.94,2.65-.71,4.1,0,0,.39-.52.81-1.03l.13-.16c.13-.16.27-.32.39-.45,1.3-1.39,3.8-3.1,3.79-3.1,0,.93-.39,4.98-.87,6.7-.38,1.41-2.92,4.08-3.61,4.82,0,0,.34.92.7,1.92l.09.25s.03.08.04.13l.09.25c.09.25.17.49.25.71.4,1.15.55,1.97.56,1.96-.87-.32-4.98-2.04-6.25-3.35-1.44-1.49-1.53-3.17-1.81-4.98-.04-.26-.13-1.13-.21-2.07l-.03-.38c-.08-1.02-.13-2.03-.07-2.37l.03.02c.27.2,2.19,1.57,3.2,2.76,1.19,1.39,2.05,2.7,2.06,2.7-.08-.58-.2-1.07-.23-1.47-.13-1.09.57-1.89.46-2.13,0,0-.08-.24-.39-.9-.31-.63-1.2-1.47-2.11-2.32l-.37-.34c-.79-.74-1.53-1.47-1.87-2.06-.35-.56-1.11-1.8-.64-8.17,0,0,2.35,2.49,3.56,4.08.76,1.02,1.57,2.62,1.58,2.63-.24-2.21.62-3.36.56-3.37,0-.06-.16-.88-.48-1.45-1.11-1.96-3.74-3.05-4.1-5.39-.31-1.81.47-3.27,4.56-4.9.8,2.86.33,5.31.25,7.58,1.97-1.7,1.73-6.03,2.69-7.58.33-.58.78-1.19,2.27-1.81,1.39-.57,2.22-.97,3.56-1.14-.02.16-.76,2.8-1.34,4.08-.71,1.56-1.68,2.17-1.73,2.29,1.57-.41,2.76-1.14,3.79-2.7.35-.51.74-1.07,1.19-1.78.41-.68.85-1.52,1.73-1.88,1.81-.73,3.64-.83,4.76-.84h.21Zm-1.59,14.14h-4.1c-.31-.97-.02-1.22.87-1.31,1.66-.15,3.09-.15,3.23,1.31Zm-.31,16.32v-3.1h2.37l-3.56,10.06-3.54-10.06h2.37v2.21s0,.2.08.23c.31.17.39.17.38.16l1.91.49Zm7.02,6.29s-1.68.17-2.75.17c-.99,0-2.53-.17-2.54-.17l2.54-8.08,2.75,8.08Zm-13.66.18c-1.07,0-2.75-.17-2.75-.17l2.75-8.08,2.54,8.08s-1.55.16-2.54.17ZM42.5,5.8c-.51-.86-5.68-3.27-13.17-4.82-3.08,3.35-3.09,4.68-3.15,5.23-.08.57,1.02,1.97,2.13,3.43,2.05,2.69,2.6,3.18,2.91,4,.6,1.54-.39,4.98-1.1,8.17,0-.01-1.84-6.74-2.69-11.12-.08-.41.08-.65.08-.65-4.63-.46-7.73-.66-8.29,1.78-2.12,0-3.1.62-3.31.98-.56.91.11,2.81.46,3.76.3-.75,2.2-.62,2.81-.59.27.01.27.18.35.33l.02,9.16h-5.44l-4.73,12.82c2.19,1.07,4.49,1.88,5.9,1.88s4.94-1.88,5.44-1.88c.48,0,4.03,1.88,5.46,1.88s3.7-.73,5.9-1.88l-4.73-12.82h-5.44v-8.66c-.1-.57-.35-.77-.56-.8h2.77c-.4-1.64-.96-2.78-1.73-2.86.22-.33.39-.46.71-.75h-2.14c.23-1.14,3-.73,4.17-.65,1.22,6.15,3.54,14.4,3.63,14.55.1.14,2.05.88,2.29.9,1.13-2.46,2.83-9.69,2.92-11.44,1.42.49.85,2.41.56,4.33-1.6,9.94-2.87,12.93-3.25,14.78,1.42-.31,2.3-.57,2.44-.73.22-.23.87-1.91,1.44-3.76.82-2.7,2.2-9.55,2.12-12.25,0-.65-.54-1.3-1.5-1.8,0,0,.48-.83.71-1.37.29-.7.64-1.89.64-1.88.56.16,1.04.41,1.11.98.3,2.61.15,2.85-.17,7.66-.09,1.54-.63,4.58-1.17,7.76-1.02,5.84-1.98,8.34-1.98,9.23,1.5-.49,2.66-.86,2.77-1.05.15-.28,1.25-3.1,2.04-7.35.34-1.81.58-3.62.87-5.47.41-2.46.48-5,.48-7.11,0-3.1.36-3.12-1.89-4.33.86-2.52.68-4.17.46-4.65-.39-.9-.86-.9-2.85-.75.72.66.5,2.05.33,2.86-.39-.32-.24-.89-2.37-.8-.32-3.52-.96-3.91-1.04-4.02-.3-.4-2.06-.21-2.6,0,.39.25,1.19,3.03.79,4.1-.24-.33-3.23-3.76-3-4.41.15-.39.32-.82,1.34-2.04,3.55.65,9.63,2.93,9.95,3.58.38.79.73,1.7.94,3.1.33,2.02.93,6.86.64,14.21-.31,7.6-1.29,11.91-1.27,11.68,1.12-.35,2.95-2.07,3.1-2.45.47-1.25.7-5.71.87-9.8.16-4.08-.26-9.24-.48-11.19-.54-4.75-.87-5.97-1.5-7.03Z"/>
    <g class="cls-4">
      <rect class="cls-3" y=".01" width="115.88" height="40.71"/>
    </g>
  </g>
  <g id="Direct_File" data-name="Direct File">
    <path class="cls-3" d="m145.79,7.67h6.93c7.92,0,12.6,4.28,12.6,12.84s-4.67,13.07-12.36,13.07h-7.17V7.67Zm6.62,22.18c5.23,0,8.2-2.97,8.2-9.35s-2.97-9.11-8.2-9.11h-2.02v18.46h2.02Z"/>
    <path class="cls-3" d="m168.6,8.14c0-1.55,1.19-2.61,2.81-2.61s2.81,1.07,2.81,2.61-1.19,2.57-2.81,2.57-2.81-1.07-2.81-2.57Zm.52,5.98h4.56v19.45h-4.56V14.12Z"/>
    <path class="cls-3" d="m178.74,14.12h3.76l.32,3.45h.16c1.39-2.54,3.45-3.92,5.51-3.92.99,0,1.62.12,2.22.4l-.79,3.96c-.67-.2-1.19-.32-2.02-.32-1.54,0-3.41,1.07-4.6,4v11.88h-4.56V14.12Z"/>
    <path class="cls-3" d="m191.61,23.87c0-6.34,4.4-10.22,8.95-10.22,5.27,0,8.04,3.8,8.04,9.23,0,.87-.08,1.74-.2,2.22h-12.36c.4,3.45,2.61,5.43,5.74,5.43,1.66,0,3.09-.52,4.52-1.43l1.55,2.85c-1.86,1.23-4.2,2.1-6.66,2.1-5.39,0-9.59-3.76-9.59-10.18Zm13.03-1.86c0-3.01-1.31-4.83-3.96-4.83-2.3,0-4.28,1.7-4.67,4.83h8.64Z"/>
    <path class="cls-3" d="m211.29,23.87c0-6.5,4.56-10.22,9.75-10.22,2.5,0,4.28.95,5.7,2.18l-2.22,2.97c-1.03-.91-2.02-1.43-3.25-1.43-3.13,0-5.31,2.57-5.31,6.5s2.14,6.46,5.19,6.46c1.51,0,2.89-.75,4-1.66l1.86,3.01c-1.82,1.58-4.12,2.38-6.34,2.38-5.31,0-9.39-3.72-9.39-10.18Z"/>
    <path class="cls-3" d="m231.72,27v-9.27h-2.77v-3.41l3.01-.2.55-5.31h3.8v5.31h4.95v3.6h-4.95v9.27c0,2.3.87,3.41,2.73,3.41.67,0,1.47-.2,2.02-.44l.79,3.37c-1.07.36-2.42.71-3.96.71-4.52,0-6.18-2.85-6.18-7.05Z"/>
    <path class="cls-3" d="m254.07,7.67h15.65v3.88h-11.05v7.33h9.43v3.88h-9.43v10.82h-4.6V7.67Z"/>
    <path class="cls-3" d="m272.78,8.14c0-1.55,1.19-2.61,2.81-2.61s2.81,1.07,2.81,2.61-1.19,2.57-2.81,2.57-2.81-1.07-2.81-2.57Zm.51,5.98h4.56v19.45h-4.56V14.12Z"/>
    <path class="cls-3" d="m282.82,28.58V5.61h4.56v23.21c0,1.11.51,1.51.99,1.51.2,0,.36,0,.71-.08l.59,3.41c-.55.24-1.35.4-2.42.4-3.25,0-4.44-2.1-4.44-5.47Z"/>
    <path class="cls-3" d="m291.55,23.87c0-6.34,4.4-10.22,8.95-10.22,5.27,0,8.04,3.8,8.04,9.23,0,.87-.08,1.74-.2,2.22h-12.36c.4,3.45,2.61,5.43,5.74,5.43,1.66,0,3.09-.52,4.52-1.43l1.55,2.85c-1.86,1.23-4.2,2.1-6.66,2.1-5.39,0-9.59-3.76-9.59-10.18Zm13.03-1.86c0-3.01-1.31-4.83-3.96-4.83-2.3,0-4.28,1.7-4.67,4.83h8.64Z"/>
  </g>
  <line id="Vertical_Line" data-name="Vertical Line" class="cls-5" x1="129.3" y1=".56" x2="129.3" y2="40.18"/>
</svg>