<svg xmlns="http://www.w3.org/2000/svg" xmlns:xlink="http://www.w3.org/1999/xlink" preserveAspectRatio="meet" viewBox="0 0 421 147" role="img" aria-label="Account icon">
    <title id="irsLogoTitle">IRS Logo</title>
    <desc id="irsLogoDesc">IRS Logo with link</desc>
    <style type="text/css">
	  .st0 {fill:#FFFFFF;}
    </style>
    <path class="st0" d="M153.3,18.9c-1.8-3.1-20.8-11.7-48.2-17.3-11.3,12-11.3,16.8-11.5,18.8s3.7,7.1,7.8,12.3c7.5,9.6,9.5,11.4,10.6,14.3,2.2,5.5-1.4,17.9-4,29.3,0,0-6.7-24.2-9.8-39.9a2.8,2.8,0,0,1,.3-2.3c-16.9-1.6-28.3-2.4-30.3,6.4-7.8,0-11.3,2.2-12.1,3.5-2,3.3.4,10.1,1.7,13.5,1.1-2.7,8-2.2,10.3-2.1s1,0.6,1.3,1.2V89.4h-20l-17.3,46c8,3.8,16.4,6.8,21.6,6.8s18.1-6.7,19.9-6.8,14.7,6.8,20,6.8,13.5-2.6,21.6-6.8L98,89.4H78.1V58.3c-0.3-2.1-1.3-2.8-2-2.9H86.2c-1.5-5.9-3.5-10-6.3-10.3a13.1,13.1,0,0,1,2.6-2.7H74.7c0.8-4.1,10.9-2.6,15.3-2.3,4.5,22.1,12.9,51.7,13.3,52.2s7.5,3.1,8.4,3.2c4.1-8.8,10.3-34.8,10.7-41.1,5.2,1.8,3.1,8.7,2,15.5-5.9,35.7-10.5,46.4-11.9,53,5.2-1.1,8.4-2,8.9-2.6s3.2-6.8,5.3-13.5c3-9.7,8-34.3,7.7-43.9,0-2.3-2-4.7-5.5-6.5a51.5,51.5,0,0,0,2.6-4.9,65.6,65.6,0,0,0,2.3-6.8c2,0.6,3.8,1.5,4.1,3.5,1.1,9.4.5,10.2-.6,27.5-0.3,5.5-2.3,16.4-4.3,27.8-3.7,21-7.2,29.9-7.2,33.1,5.5-1.8,9.7-3.1,10.1-3.8s4.6-11.1,7.5-26.4c1.2-6.5,2.1-13,3.2-19.6a154.3,154.3,0,0,0,1.8-25.5c0-11.1,1.3-11.2-6.9-15.5,3.1-9.1,2.5-15,1.7-16.7s-3.1-3.2-10.4-2.7c2.6,2.4,1.8,7.4,1.2,10.3-1.4-1.2-.9-3.2-8.6-2.9-1.2-12.6-3.5-14-3.8-14.4s-7.5-.8-9.5,0c1.4,0.9,4.3,10.9,2.9,14.7-0.9-1.2-11.8-13.5-11-15.8s1.2-2.9,4.9-7.3c13,2.3,35.2,10.5,36.4,12.9A33.9,33.9,0,0,1,148.7,35c1.2,7.3,3.4,24.6,2.3,51s-4.7,42.7-4.6,41.9c4.1-1.3,10.8-7.4,11.3-8.8,1.7-4.5,2.6-20.5,3.2-35.2s-1-33.2-1.8-40.1c-2.3-16.7-3.5-21.1-5.8-24.9h0ZM53.8,132.6c-3.9,0-10.1-.6-10.1-0.6l10.1-29,9.3,29C63,132,57.4,132.6,53.8,132.6Zm49.9-.6s-6.2.6-10.1,0.6-9.3-.6-9.3-0.6l9.3-29ZM78,109.4V98.3h8.7l-13,36.1L60.8,98.3h8.6v7.9a1,1,0,0,0,.3.8l1.4,0.6Zm1.1-58.6h-15c-1.1-3.5-.1-4.4,3.2-4.7C73.4,45.5,78.6,45.5,79.1,50.8ZM121.3,35c5.5-.9,2.9,8.8,1.5,12.6a45.5,45.5,0,0,0-6.9-11.7A32,32,0,0,1,121.3,35Z"/>
    <path class="st0" d="M24.4,115c2.6-2.7,11.8-12.2,13.2-17.3s3.2-20.7,3.2-24c0,0-9.1,6.1-13.9,11.1-2,2.2-4.9,5.9-4.9,5.9-0.9-5.2.3-11.1,2.6-14.7S38.9,61.5,40.4,57.6c2.4-6.2,2-11.7,4.1-18.5C37,41.5,27.8,47.3,23.4,52c-0.6-7.3,1.7-12.7,6.7-16.5,7.1-5.4,16.4-8.5,22.5-10.2S66.2,22.1,70.5,20c7.8-3.8,15.3-14.4,17-20C85,0,75.8-.6,66.8,3,63.6,4.3,62,7.3,60.5,9.7s-3.1,4.6-4.4,6.4a22.1,22.1,0,0,1-13.9,9.7c0.2-.5,3.7-2.6,6.3-8.2A105,105,0,0,0,53.4,3c-4.9.6-7.9,2-13,4.1s-7.1,4.4-8.3,6.5c-3.4,5.6-2.6,21.1-9.8,27.2,0.3-8.2,2-17-.9-27.2C6.4,19.5,3.6,24.7,4.7,31.2c1.3,8.4,10.9,12.3,15,19.3a22.2,22.2,0,0,1,1.8,5.2c0.3,0.1-2.9,4.2-2,12.1a74.9,74.9,0,0,0-5.8-9.4C9.3,52.7.7,43.8,0.7,43.8-1,66.7,1.8,71.1,3,73.1,5.8,78,16.6,85.6,18.9,90c1.1,2.4,1.4,3.3,1.4,3.2s-2.2,3.8-1.7,7.7c0.1,1.4.5,3.2,0.8,5.3a122.4,122.4,0,0,0-7.5-9.7c-4-4.6-11.8-10-11.8-10-0.5,2.5.8,15.3,1.1,17.3,1,6.5,1.3,12.5,6.6,17.9s19.7,10.9,22.9,12a64.5,64.5,0,0,0-2-7C27,122,24.3,115,24.4,115h0ZM165.7,14.3h4.2a16.9,16.9,0,0,1,8.1,2.1,8.1,8.1,0,0,1,3.6,3.8c0.8,1.9,1.1,5.9,1.1,12v77q0,10.8-2.1,13.5c-2.2,2.9-5.8,4.3-10.7,4.3h-4.2v3.3h51.1V127h-4.3a16.2,16.2,0,0,1-8-2.1,7.9,7.9,0,0,1-3.7-3.8c-0.8-1.9-1.1-5.9-1.1-12v-77c0-7.2.7-11.7,2.2-13.5s5.8-4.3,10.6-4.3h4.3V11H165.7v3.3h0Zm250.6,72A33.7,33.7,0,0,0,406.9,75q-6.2-4.8-22.8-13.8c-13.7-7.3-22.3-13.2-25.9-17.6a15.2,15.2,0,0,1-3.8-9.9c0-4.7,2-9,6-12.7a21.4,21.4,0,0,1,15.1-5.6,33.1,33.1,0,0,1,15.7,4.1,30.8,30.8,0,0,1,11.7,11.2q4.1,7.1,5.7,18.9h3.3V8.4h-3.3c-0.6,2.8-1.4,4.6-2.3,5.5a5.3,5.3,0,0,1-3.7,1.4c-1.4,0-3.7-.7-7-2.2-7.1-3.1-13.8-4.7-20.1-4.7-10.1,0-18.5,3.1-25.1,9.3s-9.9,13.6-9.9,22.1a28.1,28.1,0,0,0,3.3,13.5,36.8,36.8,0,0,0,9.8,11.3c4.3,3.4,11.6,8,21.8,13.7s16.4,9.5,18.7,11.2a26.5,26.5,0,0,1,7.5,8.4,18.9,18.9,0,0,1,2.4,8.9c0,5.3-2.1,9.8-6.4,13.7s-10,5.8-17.4,5.8a37.1,37.1,0,0,1-17.5-4.2c-5.3-2.8-9.3-6.3-11.8-10.6s-4.6-10.7-6.2-19.2h-3.3V127a32.9,32.9,0,0,1-11.4-4.7c-4-2.6-8.9-7.8-14.5-15.6L290.9,72.5q15-3.3,22.2-11.4A27.9,27.9,0,0,0,320.3,42,26.3,26.3,0,0,0,314,24.3a31.5,31.5,0,0,0-15.3-10.2c-6-1.8-15.3-2.8-28-2.8H227.3v3.3h4.5q6.8,0,10.2,3.9c1.6,1.8,2.5,6.5,2.5,14v77q0,10.2-1.8,12.9c-2.2,3.3-5.8,4.9-10.8,4.9h-4.6v3.3h51.1v-3.3h-4.7c-4.5,0-7.8-1.3-10-3.9s-2.5-6.5-2.5-14V74.6h5.2l7.3-.2,40.4,55.8h31.2a6.7,6.7,0,0,1,1.3-2.7,4.5,4.5,0,0,1,3.5-1.3c1.5,0,5.1.9,10.9,2.8a112.4,112.4,0,0,0,11.3,3.2,60.8,60.8,0,0,0,9.8.8c11,0,20-3.3,27-9.8S419.6,109,419.6,100a29.8,29.8,0,0,0-3.3-13.7h0ZM266.2,69.1h-4.9V19.4a79.4,79.4,0,0,1,13.8-1.7c7.7,0,13.8,2.3,18.5,7s7,10.7,7,18.2a23.6,23.6,0,0,1-8.7,18.8c-5.8,5-14.3,7.4-25.7,7.4h0Z"/>
</svg>