<svg xmlns="http://www.w3.org/2000/svg" preserveAspectRatio="none" viewBox="0 0 160 146">
  <g class="layer" fill="#fff">
    <path d="M153.3 17.9c-1.8-3.1-20.8-11.7-48.2-17.3-11.3 12-11.3 16.8-11.5 18.8s3.7 7.1 7.8 12.3c7.5 9.6 9.5 11.4 10.6 14.3 2.2 5.5-1.4 17.9-4 29.3 0 0-6.7-24.2-9.8-39.9a2.8 2.8 0 0 1 .3-2.3c-16.9-1.6-28.3-2.4-30.3 6.4-7.8 0-11.3 2.2-12.1 3.5-2 3.3.4 10.1 1.7 13.5 1.1-2.7 8-2.2 10.3-2.1s1 .6 1.3 1.2v32.8h-20l-17.3 46c8 3.8 16.4 6.8 21.6 6.8s18.1-6.7 19.9-6.8 14.7 6.8 20 6.8 13.5-2.6 21.6-6.8L98 88.4H78.1V57.3c-.3-2.1-1.3-2.8-2-2.9h10.1c-1.5-5.9-3.5-10-6.3-10.3a13.1 13.1 0 0 1 2.6-2.7h-7.8c.8-4.1 10.9-2.6 15.3-2.3 4.5 22.1 12.9 51.7 13.3 52.2s7.5 3.1 8.4 3.2c4.1-8.8 10.3-34.8 10.7-41.1 5.2 1.8 3.1 8.7 2 15.5-5.9 35.7-10.5 46.4-11.9 53 5.2-1.1 8.4-2 8.9-2.6s3.2-6.8 5.3-13.5c3-9.7 8-34.3 7.7-43.9 0-2.3-2-4.7-5.5-6.5a51.5 51.5 0 0 0 2.6-4.9 65.6 65.6 0 0 0 2.3-6.8c2 .6 3.8 1.5 4.1 3.5 1.1 9.4.5 10.2-.6 27.5-.3 5.5-2.3 16.4-4.3 27.8-3.7 21-7.2 29.9-7.2 33.1 5.5-1.8 9.7-3.1 10.1-3.8s4.6-11.1 7.5-26.4c1.2-6.5 2.1-13 3.2-19.6a154.3 154.3 0 0 0 1.8-25.5c0-11.1 1.3-11.2-6.9-15.5 3.1-9.1 2.5-15 1.7-16.7s-3.1-3.2-10.4-2.7c2.6 2.4 1.8 7.4 1.2 10.3-1.4-1.2-.9-3.2-8.6-2.9-1.2-12.6-3.5-14-3.8-14.4s-7.5-.8-9.5 0c1.4.9 4.3 10.9 2.9 14.7-.9-1.2-11.8-13.5-11-15.8s1.2-2.9 4.9-7.3c13 2.3 35.2 10.5 36.4 12.9a33.9 33.9 0 0 1 3.4 11.1c1.2 7.3 3.4 24.6 2.3 51s-4.7 42.7-4.6 41.9c4.1-1.3 10.8-7.4 11.3-8.8 1.7-4.5 2.6-20.5 3.2-35.2s-1-33.2-1.8-40.1c-2.3-16.7-3.5-21.1-5.8-24.9zM53.8 131.6c-3.9 0-10.1-.6-10.1-.6l10.1-29 9.3 29c-.1 0-5.7.6-9.3.6zm49.9-.6s-6.2.6-10.1.6-9.3-.6-9.3-.6l9.3-29 10.1 29zM78 108.4V97.3h8.7l-13 36.1-12.9-36.1h8.6v7.9a1 1 0 0 0 .3.8l1.4.6 6.9 1.8zm1.1-58.6h-15c-1.1-3.5-.1-4.4 3.2-4.7 6.1-.6 11.3-.6 11.8 4.7zM121.3 34c5.5-.9 2.9 8.8 1.5 12.6a45.5 45.5 0 0 0-6.9-11.7 32 32 0 0 1 5.4-.9z" class="st0"/>
    <path d="M24.4 114c2.6-2.7 11.8-12.2 13.2-17.3s3.2-20.7 3.2-24c0 0-9.1 6.1-13.9 11.1-2 2.2-4.9 5.9-4.9 5.9-.9-5.2.3-11.1 2.6-14.7s14.3-14.5 15.8-18.4c2.4-6.2 2-11.7 4.1-18.5C37 40.5 27.8 46.3 23.4 51c-.6-7.3 1.7-12.7 6.7-16.5 7.1-5.4 16.4-8.5 22.5-10.2s13.6-3.2 17.9-5.3c7.8-3.8 15.3-14.4 17-20-2.5 0-11.7-.6-20.7 3-3.2 1.3-4.8 4.3-6.3 6.7s-3.1 4.6-4.4 6.4a22.1 22.1 0 0 1-13.9 9.7c.2-.5 3.7-2.6 6.3-8.2A105 105 0 0 0 53.4 2c-4.9.6-7.9 2-13 4.1s-7.1 4.4-8.3 6.5c-3.4 5.6-2.6 21.1-9.8 27.2.3-8.2 2-17-.9-27.2-15 5.9-17.8 11.1-16.7 17.6 1.3 8.4 10.9 12.3 15 19.3a22.2 22.2 0 0 1 1.8 5.2c.3.1-2.9 4.2-2 12.1a74.9 74.9 0 0 0-5.8-9.4C9.3 51.7.7 42.8.7 42.8-1 65.7 1.8 70.1 3 72.1 5.8 77 16.6 84.6 18.9 89c1.1 2.4 1.4 3.3 1.4 3.2s-2.2 3.8-1.7 7.7c.1 1.4.5 3.2.8 5.3a122.4 122.4 0 0 0-7.5-9.7c-4-4.6-11.8-10-11.8-10-.5 2.5.8 15.3 1.1 17.3 1 6.5 1.3 12.5 6.6 17.9s19.7 10.9 22.9 12a64.5 64.5 0 0 0-2-7C27 121 24.3 114 24.4 114zm141.3 0" class="st0"/>
  </g>
</svg>
